<svg xmlns="http://www.w3.org/2000/svg" width="80" height="34" viewBox="0 0 80 34" fill="none">
<path d="M8.11547 22.8176C8.11547 22.9369 8.05042 23.0453 7.92031 23.1429C7.7902 23.2405 7.64112 23.3218 7.47306 23.3869C7.30501 23.4519 7.13424 23.5034 6.96076 23.5414C6.78729 23.5793 6.65176 23.5983 6.55418 23.5983C6.36986 23.5983 6.2018 23.5631 6.05001 23.4926C5.89822 23.4221 5.75727 23.3327 5.62716 23.2242C5.49705 23.1158 5.37507 22.9965 5.26123 22.8664C5.14739 22.7363 5.04167 22.6062 4.94409 22.4761C4.56461 22.0099 4.17429 21.4895 3.77312 20.9148C3.37196 20.3402 3.01416 19.7926 2.69973 19.2722C2.69973 19.3156 2.70516 19.3698 2.716 19.4348C2.72684 19.4999 2.73226 19.5541 2.73226 19.5975C2.75395 19.8252 2.77292 20.0501 2.78918 20.2724C2.80545 20.4947 2.82984 20.7197 2.86237 20.9473C2.87321 21.0775 2.88677 21.2048 2.90303 21.3295C2.91929 21.4542 2.93827 21.587 2.95995 21.728C2.98163 21.9015 3.00332 22.0749 3.025 22.2484C3.04669 22.4219 3.05753 22.6008 3.05753 22.7851C3.05753 23.0128 2.99248 23.1673 2.86237 23.2486C2.73226 23.3299 2.55878 23.3706 2.34194 23.3706C2.19015 23.3706 2.02751 23.3598 1.85403 23.3381C1.68056 23.3164 1.5125 23.273 1.34987 23.208C1.18723 23.1429 1.04086 23.0562 0.910752 22.9477C0.780644 22.8393 0.683064 22.6984 0.61801 22.5249C0.585484 22.3948 0.552956 22.1508 0.52043 21.793C0.487904 21.4352 0.460798 21.0368 0.439112 20.5977C0.417428 20.1586 0.398454 19.7167 0.38219 19.2722C0.365926 18.8277 0.352374 18.459 0.341532 18.1663C0.341532 18.1012 0.338822 18.047 0.3334 18.0037C0.327978 17.9603 0.325268 17.9169 0.325268 17.8736C0.23853 17.7977 0.162634 17.7055 0.0975799 17.5971C0.032526 17.4886 0 17.3856 0 17.2881C0 17.1471 0.0271059 17.0224 0.0813179 16.914C0.13553 16.8056 0.195162 16.7026 0.260216 16.605C0.195162 15.2714 0.162636 13.9432 0.162636 12.6205C0.162636 11.5254 0.176188 10.4384 0.203294 9.35962C0.2304 8.28081 0.254794 7.19929 0.27648 6.11506L0.32527 3.93576C0.336112 3.82733 0.341534 3.68638 0.341534 3.51291C0.341534 3.33943 0.341534 3.15511 0.341534 2.95995C0.341534 2.72142 0.341534 2.47204 0.341534 2.21183C0.341534 1.95161 0.346956 1.70766 0.357798 1.47997C0.36864 1.25229 0.379482 1.04628 0.390324 0.861963C0.401166 0.677643 0.42285 0.542112 0.455378 0.455374V0.47164C0.498748 0.309006 0.55838 0.189739 0.634276 0.113843C0.710172 0.0379468 0.84028 0 1.0246 0C1.47998 0 1.83235 0.135528 2.08173 0.406586C2.3311 0.677644 2.45579 1.04086 2.45579 1.49624C2.45579 2.22267 2.45308 2.9464 2.44765 3.66741C2.44223 4.38842 2.4341 5.11215 2.42326 5.83859C2.41242 6.56502 2.40428 7.28875 2.39886 8.00976C2.39344 8.73077 2.39073 9.4545 2.39073 10.1809C2.39073 10.4411 2.39344 10.7041 2.39886 10.9697C2.40428 11.2353 2.40699 11.5037 2.40699 11.7748C2.41784 11.9916 2.42326 12.2139 2.42326 12.4416C2.42326 12.6692 2.42326 12.9078 2.42326 13.1571L4.17971 10.3598V10.3761L4.32608 10.0834C4.35861 10.0291 4.37758 9.99119 4.38301 9.96951C4.38843 9.94783 4.39927 9.91801 4.41553 9.88006C4.4318 9.84211 4.46974 9.77977 4.52938 9.69303C4.58901 9.60629 4.69472 9.47618 4.84651 9.30271C4.90072 9.2485 4.96578 9.1997 5.04168 9.15633C5.11757 9.11296 5.21515 9.09128 5.33442 9.09128C5.45368 9.09128 5.57566 9.12652 5.70035 9.19699C5.82503 9.26747 5.93617 9.35691 6.03375 9.46534C6.13133 9.57376 6.21265 9.69303 6.2777 9.82314C6.34275 9.95324 6.37528 10.0725 6.37528 10.1809C6.37528 10.2677 6.32649 10.4168 6.22891 10.6282C6.13133 10.8396 6.00393 11.0971 5.84672 11.4007C5.6895 11.7043 5.51331 12.0323 5.31815 12.3846C5.12299 12.737 4.9197 13.0921 4.70827 13.4499C4.49685 13.8077 4.29355 14.1546 4.09839 14.4908C3.90323 14.8269 3.72975 15.125 3.57796 15.3852L3.15511 16.0683C3.40449 16.502 3.69452 16.9818 4.02521 17.5076C4.3559 18.0335 4.70557 18.562 5.0742 19.0933C5.44284 19.6246 5.81961 20.1342 6.20452 20.6221C6.58942 21.11 6.96619 21.5383 7.33483 21.9069L7.49746 22.037C7.62757 22.1346 7.7631 22.2511 7.90405 22.3867C8.045 22.5222 8.11547 22.6659 8.11547 22.8176Z" fill="url(#paint0_linear_80_36)"/>
<path d="M10.6363 22.4924C10.6363 22.7418 10.5631 22.9044 10.4167 22.9803C10.2704 23.0562 10.0942 23.0941 9.88819 23.0941C9.70387 23.0941 9.52226 23.0806 9.34336 23.0535C9.16446 23.0264 8.99641 22.9749 8.83919 22.899C8.68198 22.8231 8.54645 22.7201 8.43261 22.59C8.31876 22.4599 8.24015 22.2918 8.19679 22.0858C8.04499 21.4353 7.95826 20.7983 7.93657 20.1748C7.91489 19.5514 7.90405 18.909 7.90405 18.2476V16.2472C7.90405 15.3365 7.94199 14.3905 8.01789 13.4092C8.09379 12.428 8.1751 11.482 8.26184 10.5713C8.26184 10.5387 8.26726 10.5008 8.27811 10.4574C8.28895 10.414 8.29437 10.3815 8.29437 10.3598C8.30521 10.2406 8.32148 10.1105 8.34316 9.96951C8.36484 9.82856 8.40008 9.70116 8.44887 9.58732C8.49766 9.47347 8.56814 9.3786 8.6603 9.30271C8.75246 9.22681 8.87443 9.18886 9.02623 9.18886C9.1997 9.18886 9.36505 9.2241 9.52226 9.29457C9.67948 9.36505 9.81772 9.45721 9.93698 9.57105C10.0562 9.6849 10.1511 9.82314 10.2216 9.98577C10.2921 10.1484 10.3273 10.3165 10.3273 10.4899C10.3273 10.6743 10.3219 10.8775 10.311 11.0998C10.3002 11.3221 10.2839 11.5308 10.2622 11.726C10.2622 11.7802 10.2595 11.8398 10.2541 11.9049C10.2487 11.9699 10.2406 12.0295 10.2297 12.0838C10.3815 11.7802 10.555 11.463 10.7501 11.1323C10.9453 10.8017 11.1703 10.4981 11.4251 10.2216C11.6799 9.94511 11.9618 9.72014 12.2708 9.54666C12.5798 9.37318 12.924 9.28644 13.3035 9.28644C13.6179 9.28644 13.8782 9.33523 14.0842 9.43281C14.2902 9.53039 14.4555 9.66863 14.5802 9.84753C14.7049 10.0264 14.7916 10.2351 14.8404 10.4737C14.8892 10.7122 14.9136 10.967 14.9136 11.2381C14.9136 11.6067 14.9028 11.978 14.8811 12.3521C14.8594 12.7262 14.8377 13.0975 14.816 13.4662C14.7835 13.8456 14.7564 14.2197 14.7347 14.5883C14.713 14.957 14.7022 15.331 14.7022 15.7105C14.7022 16.1659 14.713 16.6348 14.7347 17.1173C14.7564 17.5998 14.7889 18.0606 14.8323 18.4997C14.8756 18.9388 14.9244 19.3346 14.9787 19.6869C15.0329 20.0393 15.0871 20.3131 15.1413 20.5082C15.1847 20.6709 15.2307 20.8579 15.2795 21.0693C15.3283 21.2808 15.3771 21.4976 15.4259 21.7199C15.4747 21.9421 15.5153 22.1563 15.5479 22.3623C15.5804 22.5683 15.5967 22.7526 15.5967 22.9152C15.5967 23.1538 15.5018 23.3056 15.3121 23.3706C15.1223 23.4357 14.9353 23.4682 14.751 23.4682C14.5666 23.4682 14.3579 23.4546 14.1248 23.4275C13.8917 23.4004 13.683 23.3381 13.4987 23.2405C13.271 23.0779 13.1219 22.8502 13.0514 22.5574C12.981 22.2647 12.9349 21.9774 12.9132 21.6955L12.8644 21.2564C12.8319 20.9961 12.7885 20.6546 12.7343 20.2318C12.6801 19.8089 12.6286 19.3427 12.5798 18.8331C12.531 18.3235 12.4903 17.7949 12.4578 17.2474C12.4253 16.6999 12.409 16.1659 12.409 15.6455C12.409 15.1792 12.428 14.7293 12.4659 14.2956C12.5039 13.8619 12.5446 13.4228 12.5879 12.9783C12.6096 12.7506 12.6259 12.5662 12.6367 12.4253C12.6476 12.2843 12.6638 12.1 12.6855 11.8723C12.4687 12.2193 12.2518 12.6259 12.035 13.0921C11.8181 13.5583 11.6121 14.0435 11.417 14.5477C11.2218 15.0518 11.0456 15.5425 10.8884 16.0195C10.7312 16.4966 10.6092 16.914 10.5225 17.2718L10.4249 17.6296C10.3707 17.8031 10.3246 17.9766 10.2866 18.15C10.2487 18.3235 10.2297 18.4861 10.2297 18.6379C10.2297 18.8331 10.2406 19.0581 10.2622 19.3129C10.2839 19.5677 10.311 19.8089 10.3436 20.0366C10.3761 20.3077 10.414 20.5841 10.4574 20.866C10.4574 20.8877 10.4682 20.9582 10.4899 21.0775C10.5116 21.1967 10.5333 21.3377 10.555 21.5003C10.5767 21.6629 10.5956 21.8337 10.6119 22.0126C10.6282 22.1915 10.6363 22.3514 10.6363 22.4924Z" fill="url(#paint1_linear_80_36)"/>
<path d="M23.6633 11.8398C23.6633 11.9482 23.6525 12.0621 23.6308 12.1813C23.6091 12.3006 23.5874 12.409 23.5658 12.5066C23.5441 12.6259 23.5224 12.737 23.5007 12.84C23.479 12.943 23.4682 13.0433 23.4682 13.1409C23.4682 14.1492 23.4872 15.1603 23.5251 16.174C23.5631 17.1878 23.6688 18.2042 23.8422 19.2234C23.8965 19.6137 23.9615 19.9932 24.0374 20.3619C24.1133 20.7305 24.2 21.1046 24.2976 21.484L24.3301 21.5816V21.5491C24.3627 21.625 24.3925 21.7036 24.4196 21.7849C24.4467 21.8662 24.4603 21.9503 24.4603 22.037C24.4603 22.1563 24.4304 22.2538 24.3708 22.3297C24.3112 22.4056 24.238 22.4653 24.1512 22.5086C24.0645 22.552 23.9696 22.5791 23.8666 22.59C23.7636 22.6008 23.6688 22.6062 23.582 22.6062C23.2242 22.6062 22.9396 22.5656 22.7282 22.4842C22.5168 22.4029 22.346 22.2891 22.2159 22.1427C22.0858 21.9963 21.9909 21.8202 21.9313 21.6142C21.8717 21.4082 21.8202 21.1805 21.7768 20.9311L21.728 20.6383C21.6846 20.4866 21.6575 20.3239 21.6467 20.1504C21.6358 20.0637 21.6277 20.023 21.6223 20.0285C21.6169 20.0339 21.6087 19.9932 21.5979 19.9065C21.4461 20.1775 21.2699 20.4676 21.0693 20.7766C20.8687 21.0856 20.6411 21.3729 20.3863 21.6386C20.1315 21.9042 19.8577 22.1264 19.565 22.3053C19.2722 22.4842 18.9578 22.5737 18.6217 22.5737C18.1554 22.5737 17.7949 22.4327 17.5401 22.1508C17.2854 21.8689 17.0983 21.5247 16.9791 21.1181C16.8598 20.7115 16.7893 20.2887 16.7676 19.8496C16.7459 19.4105 16.7351 19.0283 16.7351 18.703C16.7351 17.467 16.7758 16.2418 16.8571 15.0275C16.9384 13.8131 17.0278 12.5934 17.1254 11.3682C17.1254 11.3356 17.1281 11.2923 17.1336 11.2381C17.139 11.1839 17.1417 11.1405 17.1417 11.108C17.1525 10.9562 17.1634 10.8152 17.1742 10.6851C17.1851 10.555 17.2122 10.4303 17.2555 10.311V10.3273C17.2989 10.1538 17.3613 10.0291 17.4426 9.95325C17.5239 9.87735 17.6513 9.83941 17.8248 9.83941C17.9874 9.83941 18.15 9.86922 18.3127 9.92886C18.4753 9.98849 18.6217 10.0698 18.7518 10.1728C18.8819 10.2758 18.9876 10.3978 19.0689 10.5387C19.1502 10.6797 19.1909 10.8369 19.1909 11.0104C19.1909 11.0971 19.1909 11.2001 19.1909 11.3194C19.1909 11.4386 19.1855 11.5416 19.1746 11.6284C19.1746 11.7043 19.1719 11.7992 19.1665 11.913C19.1611 12.0268 19.1584 12.1217 19.1584 12.1976C19.0716 13.2385 19.0066 14.2712 18.9632 15.2958C18.9198 16.3204 18.8981 17.3585 18.8981 18.4102C18.8981 18.703 18.9009 18.9957 18.9063 19.2885C18.9117 19.5812 18.9415 19.874 18.9957 20.1667C19.3535 19.7113 19.6625 19.1286 19.9227 18.4184C20.183 17.7082 20.4025 16.9547 20.5814 16.1578C20.7603 15.3609 20.9067 14.5694 21.0205 13.7833C21.1344 12.9972 21.2184 12.3006 21.2726 11.6934C21.2726 11.6609 21.2753 11.623 21.2807 11.5796C21.2862 11.5362 21.2889 11.4983 21.2889 11.4658C21.2997 11.3465 21.3106 11.2326 21.3214 11.1242C21.3322 11.0158 21.3702 10.9128 21.4353 10.8152C21.4353 10.7176 21.4407 10.6146 21.4515 10.5062C21.4624 10.3978 21.4895 10.2975 21.5328 10.2053C21.5762 10.1132 21.6385 10.04 21.7199 9.98578C21.8012 9.93157 21.9177 9.90446 22.0695 9.90446C22.5032 9.90446 22.8448 10.0373 23.0941 10.3029C23.3435 10.5686 23.479 10.9074 23.5007 11.3194C23.5549 11.4061 23.5956 11.4901 23.6227 11.5715C23.6498 11.6528 23.6633 11.7422 23.6633 11.8398Z" fill="url(#paint2_linear_80_36)"/>
<path d="M31.2584 24.2976C31.2584 24.4494 31.2259 24.5904 31.1608 24.7205C31.0957 24.9048 31.0334 25.0566 30.9738 25.1758C30.9141 25.2951 30.841 25.3873 30.7542 25.4523C30.6675 25.5174 30.5618 25.5635 30.4371 25.5906C30.3124 25.6177 30.1525 25.6312 29.9573 25.6312H25.5336C25.4577 25.6312 25.3629 25.6285 25.249 25.6231C25.1352 25.6177 25.0213 25.6014 24.9075 25.5743C24.7937 25.5472 24.6961 25.5038 24.6148 25.4442C24.5334 25.3846 24.4928 25.2951 24.4928 25.1758C24.4928 24.9156 24.5849 24.6852 24.7693 24.4847C24.9536 24.2841 25.1758 24.1567 25.4361 24.1025C25.6529 24.0699 25.8698 24.051 26.0866 24.0455C26.3034 24.0401 26.5203 24.0266 26.7371 24.0049C27.3552 23.9724 27.9732 23.9371 28.5912 23.8992C29.2092 23.8612 29.838 23.8422 30.4777 23.8422C30.5536 23.8422 30.6377 23.845 30.7298 23.8504C30.822 23.8558 30.9087 23.8721 30.99 23.8992C31.0714 23.9263 31.1364 23.9724 31.1852 24.0374C31.234 24.1025 31.2584 24.1892 31.2584 24.2976Z" fill="url(#paint3_linear_80_36)"/>
<path d="M34.4948 22.4924C34.4948 22.7418 34.4216 22.9044 34.2753 22.9803C34.1289 23.0562 33.9527 23.0941 33.7467 23.0941C33.5624 23.0941 33.3808 23.0806 33.2019 23.0535C33.023 23.0264 32.8549 22.9749 32.6977 22.899C32.5405 22.8231 32.405 22.7201 32.2911 22.59C32.1773 22.4599 32.0987 22.2918 32.0553 22.0858C31.9035 21.4353 31.8168 20.7983 31.7951 20.1748C31.7734 19.5514 31.7626 18.909 31.7626 18.2476V16.2472C31.7626 15.3365 31.8005 14.3905 31.8764 13.4092C31.9523 12.428 32.0336 11.482 32.1204 10.5713C32.1204 10.5387 32.1258 10.5008 32.1366 10.4574C32.1475 10.414 32.1529 10.3815 32.1529 10.3598C32.1637 10.2406 32.18 10.1105 32.2017 9.96951C32.2234 9.82856 32.2586 9.70116 32.3074 9.58732C32.3562 9.47347 32.4267 9.3786 32.5188 9.30271C32.611 9.22681 32.7329 9.18886 32.8847 9.18886C33.0582 9.18886 33.2236 9.2241 33.3808 9.29457C33.538 9.36505 33.6762 9.45721 33.7955 9.57105C33.9148 9.6849 34.0096 9.82314 34.0801 9.98577C34.1506 10.1484 34.1858 10.3165 34.1858 10.4899C34.1858 10.7068 34.1777 10.9318 34.1614 11.1649C34.1452 11.398 34.1262 11.623 34.1045 11.8398C34.0828 11.9916 34.0693 12.1054 34.0638 12.1813C34.0584 12.2572 34.0503 12.3819 34.0394 12.5554C34.1696 12.3277 34.3186 12.0973 34.4867 11.8642C34.6547 11.6311 34.8418 11.4251 35.0478 11.2462C35.2538 11.0673 35.4788 10.9209 35.7227 10.8071C35.9667 10.6932 36.2296 10.6363 36.5115 10.6363C36.7934 10.6363 37.0265 10.6824 37.2108 10.7745C37.3951 10.8667 37.5415 10.9914 37.6499 11.1486C37.7584 11.3058 37.8343 11.4929 37.8776 11.7097C37.921 11.9265 37.9427 12.1542 37.9427 12.3928C37.9427 12.5446 37.94 12.6909 37.9345 12.8319C37.9291 12.9728 37.921 13.1138 37.9102 13.2547C37.8993 13.3957 37.8912 13.5339 37.8858 13.6694C37.8803 13.805 37.8776 13.9486 37.8776 14.1004C37.8776 14.3823 37.8858 14.6507 37.902 14.9055C37.9183 15.1603 37.9373 15.4286 37.9589 15.7105C38.0674 15.3527 38.2002 14.9461 38.3574 14.4908C38.5146 14.0354 38.6989 13.5692 38.9104 13.0921C39.1218 12.615 39.3549 12.1461 39.6097 11.6853C39.8645 11.2245 40.141 10.8152 40.4391 10.4574C40.7373 10.0996 41.0598 9.80959 41.4068 9.58732C41.7537 9.36505 42.117 9.25391 42.4964 9.25391C43.0928 9.25391 43.5129 9.42739 43.7569 9.77434C44.0008 10.1213 44.1228 10.5658 44.1228 11.1079C44.1228 11.2597 44.1174 11.4197 44.1065 11.5877C44.0957 11.7558 44.0794 11.9157 44.0577 12.0675C44.0035 12.653 43.9629 13.2547 43.9358 13.8727C43.9087 14.4907 43.8951 15.0925 43.8951 15.678V15.987C43.8951 16.7459 43.9276 17.4615 43.9927 18.1338C44.0577 18.806 44.1878 19.5162 44.383 20.2643L44.5131 20.7034C44.5565 20.8552 44.608 21.0232 44.6676 21.2076C44.7273 21.3919 44.7787 21.5708 44.8221 21.7443C44.8655 21.9177 44.9034 22.0804 44.936 22.2322C44.9685 22.384 44.9848 22.5032 44.9848 22.59C44.9848 22.8176 44.9034 22.9694 44.7408 23.0453C44.5782 23.1212 44.4101 23.1592 44.2366 23.1592C44.1282 23.1592 44.0035 23.1565 43.8626 23.151C43.7216 23.1456 43.5834 23.1294 43.4479 23.1023C43.3123 23.0751 43.1822 23.0345 43.0575 22.9803C42.9328 22.9261 42.8326 22.8556 42.7567 22.7689V22.7851C42.6591 22.6875 42.5886 22.5683 42.5452 22.4273C42.5019 22.2864 42.4693 22.1454 42.4477 22.0045L42.4151 21.8581C42.2633 21.2726 42.1359 20.7468 42.0329 20.2805C41.9299 19.8143 41.8459 19.3481 41.7809 18.8819C41.7158 18.4157 41.6697 17.9332 41.6426 17.4344C41.6155 16.9357 41.602 16.361 41.602 15.7105C41.602 15.1575 41.6263 14.5937 41.6751 14.0191C41.7239 13.4445 41.7754 12.8807 41.8296 12.3277C41.8296 12.2735 41.8323 12.2112 41.8378 12.1407C41.8432 12.0702 41.8513 12.0079 41.8622 11.9536C41.4502 12.5933 41.0897 13.2954 40.7806 14.0598C40.4716 14.8242 40.1952 15.6075 39.9512 16.4098C39.7073 17.2122 39.4958 18.0172 39.3169 18.825C39.138 19.6327 38.9781 20.3998 38.8372 21.1262C38.8372 21.1371 38.8616 21.1994 38.9103 21.3133C38.9591 21.4271 39.0079 21.5572 39.0567 21.7036C39.1055 21.85 39.1516 21.9909 39.195 22.1264C39.2383 22.262 39.26 22.3514 39.26 22.3948C39.26 22.6442 39.1787 22.796 39.0161 22.8502C38.8534 22.9044 38.6854 22.9315 38.5119 22.9315C38.3818 22.9315 38.2408 22.9261 38.089 22.9152C37.9373 22.9044 37.7882 22.8773 37.6418 22.8339C37.4954 22.7905 37.3599 22.7336 37.2352 22.6631C37.1105 22.5927 37.0102 22.4924 36.9343 22.3623C36.8693 22.2538 36.7934 21.9963 36.7066 21.5898C36.6199 21.1832 36.5278 20.7061 36.4302 20.1586C36.3326 19.611 36.2404 19.0228 36.1537 18.394C36.067 17.7651 35.9856 17.1688 35.9097 16.605C35.8338 16.0412 35.7742 15.5479 35.7308 15.125C35.6875 14.7022 35.6658 14.4149 35.6658 14.2631V14.0191C35.3188 14.7672 35.0315 15.5696 34.8038 16.4261C34.5761 17.2826 34.4027 18.1229 34.2834 18.9469L34.2183 19.2397C34.1967 19.3264 34.1804 19.4105 34.1696 19.4918C34.1587 19.5731 34.1533 19.6517 34.1533 19.7276C34.1533 19.8469 34.1668 19.9932 34.1939 20.1667C34.2211 20.3402 34.2563 20.5299 34.2997 20.7359C34.3539 21.0178 34.4 21.3079 34.4379 21.606C34.4758 21.9042 34.4948 22.1996 34.4948 22.4924Z" fill="url(#paint4_linear_80_36)"/>
<path d="M52.9376 22.3623C52.9376 22.5791 52.8834 22.7282 52.7749 22.8095C52.6665 22.8908 52.5147 22.9315 52.3196 22.9315C51.81 22.9315 51.4441 22.796 51.2218 22.5249C50.9995 22.2539 50.8342 21.8961 50.7258 21.4515C50.6932 21.2997 50.6607 21.1452 50.6282 20.988C50.5956 20.8308 50.5685 20.6763 50.5469 20.5245C50.5252 20.3836 50.5035 20.286 50.4818 20.2318C50.4601 20.1775 50.4384 20.0745 50.4167 19.9228C50.2866 20.2372 50.1267 20.5652 49.937 20.9067C49.7472 21.2482 49.5277 21.5627 49.2783 21.85C49.0289 22.1373 48.7497 22.3731 48.4407 22.5574C48.1317 22.7418 47.7929 22.8339 47.4243 22.8339C47.0339 22.8339 46.7087 22.739 46.4485 22.5493C46.1882 22.3596 45.985 22.121 45.8386 21.8337C45.6922 21.5464 45.5892 21.2293 45.5296 20.8823C45.4699 20.5353 45.4401 20.2047 45.4401 19.8902C45.4401 19.153 45.5133 18.3533 45.6597 17.4914C45.8061 16.6294 46.0093 15.7674 46.2696 14.9055C46.5298 14.0435 46.8334 13.2141 47.1803 12.4172C47.5273 11.6203 47.9067 10.9236 48.3188 10.3273V10.3436L48.4163 10.1972C48.5356 10.0346 48.6738 9.85838 48.8311 9.66864C48.9883 9.4789 49.1753 9.38403 49.3921 9.38403C49.5981 9.38403 49.777 9.47348 49.9288 9.65238C50.0806 9.83127 50.1891 10.0183 50.2541 10.2135C50.536 10.2677 50.7637 10.3354 50.9372 10.4168C51.1107 10.4981 51.2462 10.5984 51.3438 10.7176C51.4413 10.8369 51.5064 10.9751 51.5389 11.1324C51.5714 11.2896 51.5877 11.4603 51.5877 11.6447C51.5877 11.7205 51.5877 11.8019 51.5877 11.8886C51.5877 11.9753 51.5823 12.0621 51.5714 12.1488C51.5606 12.2356 51.5552 12.3386 51.5552 12.4578C51.5552 12.5771 51.5552 12.6855 51.5552 12.7831C51.5552 12.8915 51.5742 13.0325 51.6121 13.2059C51.6501 13.3794 51.6907 13.5583 51.7341 13.7426L51.8479 14.3444C51.9021 14.6588 51.9482 15.0166 51.9862 15.4178C52.0241 15.8189 52.0702 16.2201 52.1244 16.6213C52.1678 17.0333 52.2111 17.4317 52.2545 17.8166C52.2979 18.2015 52.3412 18.5566 52.3846 18.8819L52.7749 21.2889L52.8237 21.5654C52.8454 21.7063 52.8698 21.8364 52.8969 21.9557C52.924 22.075 52.9376 22.2105 52.9376 22.3623ZM49.2133 13.0108C49.2133 12.9891 49.2078 12.9539 49.197 12.9051C49.1861 12.8563 49.1753 12.8048 49.1645 12.7506C48.9151 13.2818 48.6955 13.8592 48.5058 14.4826C48.316 15.1061 48.1588 15.7403 48.0341 16.3854C47.9095 17.0306 47.8173 17.6757 47.7577 18.3208C47.698 18.9659 47.6682 19.5758 47.6682 20.1504C47.6682 20.2047 47.6682 20.2534 47.6682 20.2968C47.6682 20.3402 47.6736 20.3836 47.6845 20.4269V20.4432C47.9447 20.042 48.1697 19.5135 48.3594 18.8575C48.5492 18.2015 48.7091 17.5131 48.8392 16.792C48.9693 16.071 49.0642 15.3717 49.1238 14.6941C49.1834 14.0164 49.2133 13.4553 49.2133 13.0108Z" fill="url(#paint5_linear_80_36)"/>
<path d="M57.3938 22.1671C57.3938 22.2864 57.3667 22.3867 57.3125 22.468C57.2583 22.5493 57.1905 22.6116 57.1092 22.655C57.0279 22.6984 56.9411 22.7282 56.849 22.7445C56.7568 22.7607 56.6673 22.7689 56.5806 22.7689C56.4613 22.7689 56.3231 22.7553 56.1659 22.7282C56.0087 22.7011 55.8542 22.6604 55.7024 22.6062C55.5506 22.552 55.4124 22.4842 55.2877 22.4029C55.163 22.3216 55.0681 22.2213 55.0031 22.1021C54.938 21.9936 54.8811 21.7903 54.8323 21.4922C54.7835 21.194 54.7428 20.8471 54.7103 20.4513C54.6778 20.0556 54.6507 19.6327 54.629 19.1828C54.6073 18.7328 54.5883 18.3018 54.5721 17.8898C54.5558 17.4778 54.545 17.1065 54.5396 16.7758C54.5341 16.4451 54.5314 16.1984 54.5314 16.0358C54.5314 15.2768 54.545 14.5423 54.5721 13.8321C54.5992 13.1219 54.629 12.3928 54.6615 11.6446C54.6073 11.6446 54.5531 11.6501 54.4989 11.6609C54.4447 11.6718 54.3905 11.6772 54.3363 11.6772C54.1953 11.6989 54.0516 11.7151 53.9053 11.726C53.7589 11.7368 53.6098 11.7422 53.458 11.7422C53.2737 11.7422 53.1111 11.7097 52.9701 11.6446C52.8292 11.5796 52.7587 11.4332 52.7587 11.2055C52.7587 10.9345 52.8183 10.7176 52.9376 10.555C53.0569 10.3924 53.2087 10.265 53.393 10.1728C53.5773 10.0806 53.7779 10.0156 53.9947 9.97764C54.2116 9.9397 54.423 9.90988 54.629 9.88819C54.6615 9.88819 54.6832 9.88548 54.694 9.88006C54.7049 9.87464 54.7266 9.87193 54.7591 9.87193C54.7699 9.74182 54.7808 9.5819 54.7916 9.39216C54.8025 9.20242 54.8133 8.9937 54.8242 8.76601C54.835 8.40822 54.8513 8.02602 54.8729 7.61944C54.8946 7.21285 54.9163 6.82253 54.938 6.44847C54.9597 6.07441 54.9868 5.74372 55.0193 5.4564C55.0518 5.16908 55.0844 4.96578 55.1169 4.84652C55.1711 4.70557 55.2335 4.59172 55.3039 4.50498C55.3744 4.41825 55.5072 4.37488 55.7024 4.37488C56.1361 4.37488 56.4722 4.51583 56.7107 4.79773C56.9492 5.07963 57.0685 5.42658 57.0685 5.83859C57.0685 6.31565 57.055 6.79271 57.0279 7.26977C57.0008 7.74684 56.9764 8.22932 56.9547 8.71722L56.9059 9.54666C57.1769 9.51413 57.448 9.46534 57.7191 9.40029C57.9793 9.34608 58.2422 9.29728 58.5078 9.25391C58.7735 9.21054 59.031 9.18886 59.2803 9.18886C59.4972 9.18886 59.6652 9.24578 59.7845 9.35963C59.9038 9.47347 59.9634 9.63882 59.9634 9.85566C59.9634 10.0942 59.92 10.3273 59.8333 10.555C59.7466 10.7827 59.5948 10.9562 59.3779 11.0754H59.3942C59.3508 11.0971 59.2207 11.1269 59.0039 11.1649C58.787 11.2028 58.5404 11.2381 58.2639 11.2706C57.9874 11.3031 57.7163 11.3356 57.4507 11.3682C57.1851 11.4007 56.9872 11.4224 56.8571 11.4332H56.8408C56.8191 12.0404 56.8029 12.6394 56.792 13.2303C56.7812 13.8212 56.7758 14.4203 56.7758 15.0274C56.7758 15.8623 56.8002 16.7487 56.849 17.6865C56.8977 18.6244 56.9818 19.5162 57.101 20.3619L57.2312 21.0937C57.2745 21.278 57.3125 21.4596 57.345 21.6385C57.3775 21.8174 57.3938 21.9936 57.3938 22.1671Z" fill="url(#paint6_linear_80_36)"/>
<path d="M67.0543 20.7522C67.0543 20.9473 66.973 21.1262 66.8103 21.2889C66.6477 21.4515 66.439 21.5952 66.1842 21.7199C65.9294 21.8445 65.6421 21.9557 65.3222 22.0533C65.0024 22.1508 64.6907 22.2295 64.3871 22.2891C64.0835 22.3487 63.8043 22.3948 63.5495 22.4273C63.2947 22.4599 63.0968 22.4761 62.9559 22.4761C62.6848 22.4761 62.3975 22.4544 62.0939 22.4111C61.7903 22.3677 61.4922 22.2999 61.1994 22.2078C60.9067 22.1156 60.6302 21.9963 60.37 21.85C60.1098 21.7036 59.8875 21.5274 59.7032 21.3214V21.3377C59.6165 21.2509 59.5324 21.1479 59.4511 21.0287C59.3698 20.9094 59.3291 20.7739 59.3291 20.6221C59.3291 20.5245 59.3671 20.4378 59.443 20.3619C59.5189 20.286 59.6056 20.2318 59.7032 20.1992C59.8116 19.939 59.9255 19.6788 60.0447 19.4186C60.164 19.1584 60.2833 18.9036 60.4025 18.6542L60.6465 18.085C61.2211 16.9574 61.7551 15.8406 62.2484 14.7347C62.7418 13.6288 63.2324 12.4849 63.7203 11.3031L63.0697 11.3356L62.2728 11.3844L61.7361 11.4495C61.5843 11.4712 61.4407 11.4874 61.3051 11.4983C61.1696 11.5091 61.0314 11.5145 60.8904 11.5145C60.4784 11.5145 60.2724 11.314 60.2724 10.9128C60.2724 10.7285 60.2941 10.5631 60.3375 10.4168C60.3808 10.2704 60.4622 10.1376 60.5814 10.0183C60.6356 9.95325 60.7793 9.8909 61.0124 9.83127C61.2455 9.77164 61.5193 9.71743 61.8337 9.66864C62.1481 9.61985 62.487 9.57376 62.8502 9.53039C63.2134 9.48702 63.5631 9.44908 63.8992 9.41655C64.2353 9.38402 64.5362 9.35963 64.8018 9.34336C65.0674 9.3271 65.2545 9.31897 65.3629 9.31897C65.558 9.31897 65.7397 9.34608 65.9077 9.40029C66.0758 9.4545 66.1598 9.61713 66.1598 9.88819C66.1598 10.04 66.1218 10.2053 66.0459 10.3842C65.9701 10.5631 65.8887 10.723 65.802 10.864C65.8237 10.9182 65.8345 10.9995 65.8345 11.108C65.8345 11.2272 65.7912 11.4278 65.7044 11.7097C65.6177 11.9916 65.5011 12.3331 65.3547 12.7343C65.2084 13.1355 65.0376 13.58 64.8425 14.0679C64.6473 14.5558 64.444 15.0546 64.2326 15.5641C64.0211 16.0737 63.807 16.5833 63.5902 17.0929C63.3733 17.6025 63.1673 18.0796 62.9721 18.5241L62.0614 20.6383C62.2457 20.6817 62.4571 20.7034 62.6957 20.7034C63.1836 20.7034 63.6471 20.6112 64.0862 20.4269C64.5253 20.2426 64.9021 20.0583 65.2165 19.874C65.4008 19.7764 65.5635 19.6924 65.7044 19.6219C65.8454 19.5514 65.9592 19.5162 66.0459 19.5162C66.1869 19.5162 66.3197 19.5568 66.4444 19.6381C66.5691 19.7195 66.6775 19.8225 66.7697 19.9471C66.8618 20.0718 66.9323 20.2047 66.9811 20.3456C67.0299 20.4866 67.0543 20.6221 67.0543 20.7522Z" fill="url(#paint7_linear_80_36)"/>
<path d="M70.4046 21.8581C70.4046 22.1075 70.3476 22.2837 70.2338 22.3867C70.1199 22.4897 69.9383 22.5412 69.689 22.5412C69.5589 22.5412 69.4152 22.5249 69.258 22.4924C69.1008 22.4599 68.9463 22.4138 68.7945 22.3541C68.6427 22.2945 68.5017 22.2213 68.3716 22.1346C68.2415 22.0478 68.1439 21.9503 68.0789 21.8418C68.0355 21.7768 67.9976 21.5762 67.965 21.2401C67.9325 20.904 67.9081 20.4865 67.8919 19.9878C67.8756 19.4891 67.8593 18.9307 67.8431 18.3127C67.8268 17.6947 67.816 17.0712 67.8105 16.4424C67.8051 15.8135 67.8024 15.2009 67.8024 14.6046C67.8024 14.0083 67.8024 13.4878 67.8024 13.0433V11.791C67.8024 11.6826 67.8051 11.5742 67.8105 11.4657C67.816 11.3573 67.8376 11.2625 67.8756 11.1811C67.9135 11.0998 67.9732 11.0321 68.0545 10.9778C68.1358 10.9236 68.2524 10.8965 68.4042 10.8965C68.8812 10.8965 69.2309 11.0293 69.4531 11.295C69.6754 11.5606 69.8137 11.9157 69.8679 12.3602C69.9221 13.0216 69.9627 13.6803 69.9898 14.3362C70.0169 14.9922 70.0413 15.6563 70.063 16.3285C70.0847 16.9357 70.1037 17.5347 70.1199 18.1256C70.1362 18.7165 70.1714 19.3047 70.2257 19.8902C70.2365 20.0095 70.2473 20.1233 70.2582 20.2318C70.269 20.3402 70.2853 20.4486 70.307 20.557C70.3287 20.7739 70.3503 20.988 70.372 21.1994C70.3937 21.4109 70.4046 21.6304 70.4046 21.8581ZM69.8028 8.89612C69.8028 9.08044 69.7621 9.21326 69.6808 9.29457C69.5995 9.37589 69.4504 9.41655 69.2336 9.41655C69.136 9.41655 68.9842 9.403 68.7782 9.37589C68.5722 9.34878 68.3635 9.30813 68.1521 9.25391C67.9406 9.1997 67.7563 9.12381 67.5991 9.02623C67.4419 8.92865 67.3633 8.80938 67.3633 8.66843C67.3633 8.62506 67.3795 8.50309 67.4121 8.3025C67.4446 8.10192 67.4853 7.88778 67.5341 7.6601C67.5828 7.43241 67.6262 7.2264 67.6642 7.04208C67.7021 6.85776 67.7319 6.75476 67.7536 6.73308V6.74934C67.8078 6.6626 67.8729 6.60839 67.9488 6.58671C68.0247 6.56502 68.1006 6.55418 68.1765 6.55418C68.274 6.55418 68.4014 6.56773 68.5586 6.59484C68.7159 6.62195 68.8731 6.65989 69.0303 6.70868C69.1875 6.75747 69.3312 6.81982 69.4613 6.89571C69.5914 6.97161 69.6727 7.05293 69.7052 7.13967C69.7378 7.22641 69.7567 7.34296 69.7621 7.48933C69.7676 7.6357 69.7649 7.76852 69.754 7.88778C69.754 7.93115 69.7513 7.98265 69.7459 8.04229C69.7405 8.10192 69.7378 8.148 69.7378 8.18053C69.7378 8.23474 69.7405 8.28895 69.7459 8.34316C69.7513 8.39737 69.7594 8.45158 69.7703 8.50579C69.7811 8.56001 69.7892 8.61964 69.7947 8.68469C69.8001 8.74975 69.8028 8.82022 69.8028 8.89612Z" fill="url(#paint8_linear_80_36)"/>
<path d="M75.0071 33.21C75.0071 33.4485 74.9421 33.6112 74.812 33.6979C74.6818 33.7846 74.5084 33.828 74.2915 33.828C74.0313 33.828 73.744 33.7874 73.4296 33.706C73.1151 33.6247 72.8658 33.4756 72.6814 33.2588C72.6272 33.1829 72.5757 32.9606 72.5269 32.592C72.4781 32.2234 72.4321 31.7924 72.3887 31.299C72.3453 30.8057 72.3074 30.2961 72.2748 29.7703C72.2423 29.2444 72.2098 28.7809 72.1773 28.3798L72.1122 27.5178C71.9821 25.1975 71.9171 22.8773 71.9171 20.557C71.9171 19.2017 71.9415 17.8708 71.9902 16.5643C72.039 15.2578 72.0905 13.9324 72.1447 12.5879L72.2098 10.8803C72.2098 10.7068 72.2125 10.536 72.2179 10.368C72.2233 10.1999 72.2423 10.0346 72.2748 9.87193C72.3291 9.73098 72.3968 9.61984 72.4781 9.53852C72.5595 9.45721 72.6923 9.41655 72.8766 9.41655C73.3428 9.41655 73.6844 9.55479 73.9012 9.83127C74.118 10.1077 74.2427 10.4466 74.2753 10.8477C74.6222 10.3707 75.0369 9.99119 75.5194 9.70929C76.0019 9.42739 76.5576 9.28644 77.1864 9.28644C77.7177 9.28644 78.1649 9.40571 78.5281 9.64424C78.8914 9.88277 79.1814 10.1891 79.3982 10.5631C79.6151 10.9372 79.7696 11.3546 79.8618 11.8154C79.9539 12.2762 80 12.7289 80 13.1734C80 14.03 79.9241 14.8838 79.7723 15.7349C79.6205 16.586 79.3847 17.41 79.0648 18.207C78.745 19.0039 78.3411 19.7574 77.8532 20.4676C77.3653 21.1778 76.7907 21.8093 76.1293 22.3623C76.0426 22.4382 75.9396 22.5195 75.8203 22.6062C75.701 22.693 75.5763 22.7743 75.4462 22.8502C75.3161 22.9261 75.1833 22.9911 75.0478 23.0453C74.9122 23.0996 74.7903 23.1267 74.6818 23.1267C74.5626 23.1267 74.4596 23.0996 74.3728 23.0453C74.2861 22.9911 74.2102 22.9261 74.1451 22.8502C74.1668 23.5983 74.1967 24.3735 74.2346 25.1758C74.2725 25.9782 74.3186 26.7832 74.3728 27.591C74.4271 28.3987 74.4948 29.1983 74.5761 29.9898C74.6575 30.7813 74.7577 31.5457 74.877 32.283C74.9095 32.4239 74.9393 32.573 74.9665 32.7302C74.9936 32.8874 75.0071 33.0474 75.0071 33.21ZM74.1126 18.3452C74.1126 18.8656 74.1099 19.3427 74.1045 19.7764C74.0991 20.2101 74.1072 20.6871 74.1289 21.2076L74.4216 20.9961L74.6005 20.8823C75.1318 20.4594 75.5953 19.9417 75.991 19.3291C76.3868 18.7165 76.7148 18.0633 76.975 17.3694C77.2352 16.6755 77.4277 15.9626 77.5523 15.2307C77.677 14.4989 77.7394 13.8023 77.7394 13.1409C77.7394 13.0108 77.7367 12.8292 77.7312 12.5961C77.7258 12.3629 77.7014 12.1325 77.6581 11.9049C77.6147 11.6772 77.5496 11.4793 77.4629 11.3112C77.3762 11.1432 77.2515 11.0592 77.0888 11.0592C76.8286 11.0592 76.563 11.2164 76.2919 11.5308C76.0209 11.8452 75.7688 12.2193 75.5357 12.653C75.3026 13.0867 75.0938 13.5231 74.9095 13.9622C74.7252 14.4013 74.5897 14.7455 74.5029 14.9949C74.5029 15.0058 74.5002 15.0112 74.4948 15.0112C74.4894 15.0112 74.4867 15.0166 74.4867 15.0274V15.0437C74.4216 15.1955 74.3539 15.3581 74.2834 15.5316C74.2129 15.7051 74.1668 15.8677 74.1451 16.0195C74.1235 16.1713 74.1072 16.3421 74.0964 16.5318C74.0855 16.7216 74.0801 16.9194 74.0801 17.1254C74.0801 17.2339 74.0828 17.3396 74.0882 17.4426C74.0936 17.5456 74.0964 17.6404 74.0964 17.7272C74.0964 17.8465 74.0991 17.9576 74.1045 18.0606C74.1099 18.1636 74.1126 18.2585 74.1126 18.3452Z" fill="url(#paint9_linear_80_36)"/>
<defs>
<linearGradient id="paint0_linear_80_36" x1="0.0507217" y1="10.8127" x2="8.01403" y2="10.8127" gradientUnits="userSpaceOnUse">
<stop stop-color="#160123"/>
<stop offset="1" stop-color="#5711C8" stop-opacity="0.4"/>
</linearGradient>
<linearGradient id="paint1_linear_80_36" x1="7.95212" y1="15.7317" x2="15.5005" y2="15.7317" gradientUnits="userSpaceOnUse">
<stop stop-color="#160123"/>
<stop offset="1" stop-color="#5711C8" stop-opacity="0.4"/>
</linearGradient>
<linearGradient id="paint2_linear_80_36" x1="16.7834" y1="15.6892" x2="24.3637" y2="15.6892" gradientUnits="userSpaceOnUse">
<stop stop-color="#160123"/>
<stop offset="1" stop-color="#5711C8" stop-opacity="0.4"/>
</linearGradient>
<linearGradient id="paint3_linear_80_36" x1="24.5351" y1="24.662" x2="31.1738" y2="24.662" gradientUnits="userSpaceOnUse">
<stop stop-color="#160123"/>
<stop offset="1" stop-color="#5711C8" stop-opacity="0.4"/>
</linearGradient>
<linearGradient id="paint4_linear_80_36" x1="31.8452" y1="15.5901" x2="44.8195" y2="15.5901" gradientUnits="userSpaceOnUse">
<stop stop-color="#160123"/>
<stop offset="1" stop-color="#5711C8" stop-opacity="0.4"/>
</linearGradient>
<linearGradient id="paint5_linear_80_36" x1="45.487" y1="15.5915" x2="52.8439" y2="15.5915" gradientUnits="userSpaceOnUse">
<stop stop-color="#160123"/>
<stop offset="1" stop-color="#5711C8" stop-opacity="0.4"/>
</linearGradient>
<linearGradient id="paint6_linear_80_36" x1="52.8037" y1="12.803" x2="59.8734" y2="12.803" gradientUnits="userSpaceOnUse">
<stop stop-color="#160123"/>
<stop offset="1" stop-color="#5711C8" stop-opacity="0.4"/>
</linearGradient>
<linearGradient id="paint7_linear_80_36" x1="59.3774" y1="15.3476" x2="66.9577" y2="15.3476" gradientUnits="userSpaceOnUse">
<stop stop-color="#160123"/>
<stop offset="1" stop-color="#5711C8" stop-opacity="0.4"/>
</linearGradient>
<linearGradient id="paint8_linear_80_36" x1="67.3823" y1="13.8794" x2="70.3665" y2="13.8794" gradientUnits="userSpaceOnUse">
<stop stop-color="#160123"/>
<stop offset="1" stop-color="#5711C8" stop-opacity="0.4"/>
</linearGradient>
<linearGradient id="paint9_linear_80_36" x1="71.9676" y1="20.5314" x2="79.899" y2="20.5314" gradientUnits="userSpaceOnUse">
<stop stop-color="#160123"/>
<stop offset="1" stop-color="#5711C8" stop-opacity="0.4"/>
</linearGradient>
</defs>
</svg>