<svg width="20" height="20" viewBox="0 0 20 20" fill="none" xmlns="http://www.w3.org/2000/svg">
<path d="M3.75 16.25H4.66667L13.8958 7.02082L12.9792 6.10416L3.75 15.3333V16.25ZM16.5417 6.12499L13.875 3.45832L14.75 2.58332C14.9861 2.34721 15.2778 2.22916 15.625 2.22916C15.9722 2.22916 16.2639 2.34721 16.5 2.58332L17.4167 3.49999C17.6528 3.7361 17.7708 4.02777 17.7708 4.37499C17.7708 4.72221 17.6528 5.01388 17.4167 5.24999L16.5417 6.12499ZM15.6667 6.99999L5.16667 17.5H2.5V14.8333L13 4.33332L15.6667 6.99999ZM13.4375 6.56249L12.9792 6.10416L13.8958 7.02082L13.4375 6.56249Z" fill="#E2E71B"/>
</svg>
