<svg width="250" height="250" viewBox="0 0 250 250" fill="none" xmlns="http://www.w3.org/2000/svg">
<g clip-path="url(#clip0_99_97)">
<path d="M125 20.8333C67.5 20.8333 20.8334 67.5 20.8334 125C20.8334 182.5 67.5 229.167 125 229.167C182.5 229.167 229.167 182.5 229.167 125C229.167 67.5 182.5 20.8333 125 20.8333ZM125 62.5C145.104 62.5 161.458 78.8542 161.458 98.9583C161.458 119.062 145.104 135.417 125 135.417C104.896 135.417 88.5417 119.062 88.5417 98.9583C88.5417 78.8542 104.896 62.5 125 62.5ZM125 208.333C103.854 208.333 78.8542 199.792 61.0417 178.333C78.6459 164.583 100.833 156.25 125 156.25C149.167 156.25 171.354 164.583 188.958 178.333C171.146 199.792 146.146 208.333 125 208.333Z" fill="#D9D9D9"/>
</g>
<defs>
<clipPath id="clip0_99_97">
<rect width="250" height="250" fill="white"/>
</clipPath>
</defs>
</svg>
