<svg width="200" height="200" viewBox="0 0 200 200" fill="none" xmlns="http://www.w3.org/2000/svg">
<path d="M100 0C44.8 0 0 44.8 0 100C0 155.2 44.8 200 100 200C155.2 200 200 155.2 200 100C200 44.8 155.2 0 100 0ZM100 40C119.3 40 135 55.7 135 75C135 94.3 119.3 110 100 110C80.7 110 65 94.3 65 75C65 55.7 80.7 40 100 40ZM100 180C85.1479 180 68.3153 175.611 53.6534 165.187C44.461 158.652 45.9013 145.249 56.0148 140.256C69.2673 133.714 84.1926 130 100 130C115.807 130 130.733 133.714 143.985 140.256C154.099 145.249 155.539 158.652 146.347 165.187C131.685 175.611 114.852 180 100 180Z" fill="#D9D9D9"/>
</svg>
